<svg width="117" height="110" viewBox="0 0 117 110" fill="none" xmlns="http://www.w3.org/2000/svg">
<path d="M45.3375 55.7337C47.7606 55.7337 49.725 57.7037 49.725 60.1337V83.6002C49.725 86.0302 47.7606 88.0002 45.3375 88.0002C42.9144 88.0002 40.95 86.0302 40.95 83.6002V60.1337C40.95 57.7037 42.9144 55.7337 45.3375 55.7337Z" fill="#301D19"/>
<path d="M76.05 60.1337C76.05 57.7037 74.0856 55.7337 71.6625 55.7337C69.2394 55.7337 67.275 57.7037 67.275 60.1337V83.6002C67.275 86.0302 69.2394 88.0002 71.6625 88.0002C74.0856 88.0002 76.05 86.0302 76.05 83.6002V60.1337Z" fill="#301D19"/>
<path fill-rule="evenodd" clip-rule="evenodd" d="M50.778 0.795802C52.7635 2.18936 53.2461 4.9329 51.8567 6.92362L37.2372 27.8669H79.763L65.1433 6.92362C63.7539 4.9329 64.2365 2.18936 66.222 0.795802C68.2069 -0.597759 70.9424 -0.113702 72.3323 1.87708L90.4743 27.8669H103.838C111.107 27.8669 117 33.7767 117 41.0668V45.6727C117 49.6523 115.21 53.4198 112.128 55.9261L105.326 61.4559L100.627 98.4674C99.7899 105.06 94.1967 110 87.5698 110H29.4301C22.8035 110 17.2101 105.06 16.373 98.4674L11.6736 61.4559L4.87276 55.9261C1.79033 53.4192 0 49.6523 0 45.6727V41.0668C0 33.7767 5.89306 27.8669 13.1625 27.8669H26.5258L44.6678 1.87708C46.0574 -0.113702 48.7931 -0.597759 50.778 0.795802ZM103.838 36.6668C106.261 36.6668 108.225 38.6368 108.225 41.0668V45.6727C108.225 46.9994 107.628 48.2548 106.601 49.0902L98.4333 55.7319C97.5558 56.4452 96.9866 57.4702 96.8438 58.5936L91.9222 97.3557C91.6432 99.5533 89.7788 101.2 87.5698 101.2H29.4301C27.2212 101.2 25.3568 99.5533 25.0777 97.3557L20.156 58.5936C20.0134 57.4702 19.4442 56.4452 18.5669 55.7319L10.3993 49.0902C9.37176 48.2548 8.775 46.9994 8.775 45.6727V41.0668C8.775 38.6368 10.7394 36.6668 13.1625 36.6668H103.838Z" fill="#301D19"/>
</svg>
