<svg width="120" height="120" viewBox="0 0 120 120" fill="none" xmlns="http://www.w3.org/2000/svg">
<path fill-rule="evenodd" clip-rule="evenodd" d="M20.0074 33.521C14.246 35.0648 10.8269 40.9868 12.3707 46.7482L24.0486 90.2705V92.1818C24.0486 98.1463 28.8839 102.982 34.8486 102.982H97.2485C103.213 102.982 108.049 98.1463 108.049 92.1818V50.5384C108.049 44.643 103.325 39.851 97.4559 39.7403L93.5084 25.0074C91.9647 19.246 86.0425 15.8269 80.281 17.3707L20.0074 33.521ZM100.849 55.3054V50.5384C100.849 48.5501 99.2367 46.9384 97.2485 46.9384H34.8486C32.8603 46.9384 31.2486 48.5501 31.2486 50.5384V55.3054H100.849ZM24.0486 62.5121V50.5384C24.0486 44.5737 28.8839 39.7384 34.8486 39.7384H90.0015L86.5537 26.8709C86.0391 24.9505 84.0653 23.8107 82.1449 24.3254L21.8709 40.4757C19.9505 40.9902 18.8108 42.9642 19.3254 44.8847L24.0486 62.5121ZM31.2486 68.7324H100.849V92.1818C100.849 94.17 99.2367 95.7818 97.2485 95.7818H34.8486C32.8604 95.7818 31.2486 94.17 31.2486 92.1818V68.7324Z" fill="#301D19"/>
</svg>
