<svg width="1080" height="1920" viewBox="0 0 1080 1920" fill="none" xmlns="http://www.w3.org/2000/svg">
<g clip-path="url(#clip0_11_103)">
<rect width="1080" height="1920" fill="white"/>
<path d="M0 0H1080V1920H0V0Z" fill="#592E74"/>
<ellipse cx="119.321" cy="1713.17" rx="132" ry="130" transform="rotate(-101.731 119.321 1713.17)" fill="#F4AED7"/>
<path d="M-19.1777 1988.07L-82.005 1685.52L164.731 1634.29L227.558 1936.83L-19.1777 1988.07Z" fill="#F4AED7"/>
<ellipse cx="-9.74913" cy="1630.18" rx="96.5" ry="89.5" transform="rotate(-101.731 -9.74913 1630.18)" fill="#F4AED7"/>
<ellipse cx="247.889" cy="1847.84" rx="92" ry="90.5" transform="rotate(-101.731 247.889 1847.84)" fill="#F4AED7"/>
<circle cx="101.249" cy="1842.54" r="7" transform="rotate(-101.731 101.249 1842.54)" fill="#592E74"/>
<circle cx="155.238" cy="1743.5" r="11" transform="rotate(-101.731 155.238 1743.5)" fill="#592E74"/>
<circle cx="32.4399" cy="1739.89" r="8.5" transform="rotate(-101.731 32.4399 1739.89)" fill="#592E74"/>
<circle cx="13.124" cy="1646.87" r="8.5" transform="rotate(-101.731 13.124 1646.87)" fill="#592E74"/>
<circle cx="253.603" cy="1811.42" r="12.5" transform="rotate(-101.731 253.603 1811.42)" fill="#592E74"/>
<ellipse cx="138.442" cy="1633.11" rx="12.5" ry="12" transform="rotate(-101.731 138.442 1633.11)" fill="#592E74"/>
<circle cx="93.0914" cy="1746.7" r="1.5" transform="rotate(-101.731 93.0914 1746.7)" fill="#592E74"/>
<circle cx="170.378" cy="1828.7" r="2.5" transform="rotate(-101.731 170.378 1828.7)" fill="#592E74"/>
</g>
<defs>
<clipPath id="clip0_11_103">
<rect width="1080" height="1920" fill="white"/>
</clipPath>
</defs>
</svg>
