<svg width="1080" height="1920" viewBox="0 0 1080 1920" fill="none" xmlns="http://www.w3.org/2000/svg">
<g clip-path="url(#clip0_1_40)">
<rect width="1080" height="1920" fill="white"/>
<path d="M0 -19H1080V1992H0V-19Z" fill="#592E74"/>
<ellipse cx="184" cy="165.232" rx="132" ry="136.031" fill="#F4AED7"/>
<path d="M-57 -35.152H252V228.539H-57V-35.152Z" fill="#F4AED7"/>
<ellipse cx="291.5" cy="50.6521" rx="96.5" ry="93.6521" fill="#F4AED7"/>
<ellipse cx="26" cy="268.302" rx="92" ry="94.6985" fill="#F4AED7"/>
<ellipse cx="61" cy="119.191" rx="7" ry="7.32474" fill="#592E74"/>
<ellipse cx="147" cy="195.577" rx="11" ry="11.5103" fill="#592E74"/>
<ellipse cx="175.5" cy="70.5335" rx="8.5" ry="8.89433" fill="#592E74"/>
<ellipse cx="270.5" cy="70.5335" rx="8.5" ry="8.89433" fill="#592E74"/>
<ellipse cx="60.5" cy="281.905" rx="12.5" ry="13.0799" fill="#592E74"/>
<ellipse cx="258.5" cy="201.856" rx="12.5" ry="12.5567" fill="#592E74"/>
<ellipse cx="156.5" cy="131.224" rx="1.5" ry="1.56959" fill="#592E74"/>
<ellipse cx="311" cy="45.9433" rx="2" ry="2.09278" fill="#592E74"/>
<ellipse cx="60.5" cy="192.961" rx="2.5" ry="2.61597" fill="#592E74"/>
<ellipse cx="261.5" cy="3.56444" rx="9.5" ry="9.94072" fill="#592E74"/>
</g>
<defs>
<clipPath id="clip0_1_40">
<rect width="1080" height="1920" fill="white"/>
</clipPath>
</defs>
</svg>
