<svg width="1080" height="1920" viewBox="0 0 1080 1920" fill="none" xmlns="http://www.w3.org/2000/svg">
<g clip-path="url(#clip0_11_51)">
<rect width="1080" height="1920" fill="white"/>
<path d="M0 0H1080V1920H0V0Z" fill="#592E74"/>
<ellipse cx="894.5" cy="1792.51" rx="132" ry="130" transform="rotate(-179.856 894.5 1792.51)" fill="#F4AED7"/>
<path d="M1135.02 1984.62L826.019 1983.84L826.652 1731.84L1135.65 1732.62L1135.02 1984.62Z" fill="#F4AED7"/>
<ellipse cx="786.725" cy="1901.74" rx="96.5" ry="89.5" transform="rotate(-179.856 786.725 1901.74)" fill="#F4AED7"/>
<ellipse cx="1052.75" cy="1694.41" rx="92" ry="90.5" transform="rotate(-179.856 1052.75 1694.41)" fill="#F4AED7"/>
<circle cx="1017.39" cy="1836.82" r="7" transform="rotate(-179.856 1017.39 1836.82)" fill="#592E74"/>
<circle cx="931.572" cy="1763.61" r="11" transform="rotate(-179.856 931.572 1763.61)" fill="#592E74"/>
<circle cx="902.772" cy="1883.03" r="8.5" transform="rotate(-179.856 902.772 1883.03)" fill="#592E74"/>
<circle cx="807.772" cy="1882.79" r="8.5" transform="rotate(-179.856 807.772 1882.79)" fill="#592E74"/>
<circle cx="1018.28" cy="1681.32" r="12.5" transform="rotate(-179.856 1018.28 1681.32)" fill="#592E74"/>
<ellipse cx="820.088" cy="1757.32" rx="12.5" ry="12" transform="rotate(-179.856 820.088 1757.32)" fill="#592E74"/>
<circle cx="921.918" cy="1825.08" r="1.5" transform="rotate(-179.856 921.918 1825.08)" fill="#592E74"/>
<circle cx="767.214" cy="1906.19" r="2" transform="rotate(-179.856 767.214 1906.19)" fill="#592E74"/>
<circle cx="1018.07" cy="1766.32" r="2.5" transform="rotate(-179.856 1018.07 1766.32)" fill="#592E74"/>
</g>
<defs>
<clipPath id="clip0_11_51">
<rect width="1080" height="1920" fill="white"/>
</clipPath>
</defs>
</svg>
