<svg width="1080" height="1920" viewBox="0 0 1080 1920" fill="none" xmlns="http://www.w3.org/2000/svg">
<g clip-path="url(#clip0_11_33)">
<rect width="1080" height="1920" fill="white"/>
<path d="M0 0H1080V1920H0V0Z" fill="#592E74"/>
<ellipse cx="939.056" cy="135.137" rx="132" ry="130" transform="rotate(69.3384 939.056 135.137)" fill="#F4AED7"/>
<path d="M1033.2 -157.932L1142.23 131.193L906.441 220.111L797.411 -69.0148L1033.2 -157.932Z" fill="#F4AED7"/>
<ellipse cx="1079.44" cy="197.086" rx="96.5" ry="89.5" transform="rotate(69.3384 1079.44 197.086)" fill="#F4AED7"/>
<ellipse cx="791.141" cy="22.0549" rx="92" ry="90.5" transform="rotate(69.3384 791.141 22.0549)" fill="#F4AED7"/>
<circle cx="936.825" cy="4.52287" r="7" transform="rotate(69.3384 936.825 4.52287)" fill="#592E74"/>
<circle cx="898.865" cy="110.749" r="11" transform="rotate(69.3384 898.865 110.749)" fill="#592E74"/>
<circle cx="1020.74" cy="95.2509" r="8.5" transform="rotate(69.3384 1020.74 95.2509)" fill="#592E74"/>
<circle cx="1054.26" cy="184.141" r="8.5" transform="rotate(69.3384 1054.26 184.141)" fill="#592E74"/>
<circle cx="791.151" cy="58.923" r="12.5" transform="rotate(69.3384 791.151 58.923)" fill="#592E74"/>
<ellipse cx="932.594" cy="217.195" rx="12.5" ry="12" transform="rotate(69.3384 932.594 217.195)" fill="#592E74"/>
<circle cx="959.762" cy="97.9382" r="1.5" transform="rotate(69.3384 959.762 97.9382)" fill="#592E74"/>
<circle cx="870.683" cy="28.9309" r="2.5" transform="rotate(69.3384 870.683 28.9309)" fill="#592E74"/>
</g>
<defs>
<clipPath id="clip0_11_33">
<rect width="1080" height="1920" fill="white"/>
</clipPath>
</defs>
</svg>
