<svg width="120" height="120" viewBox="0 0 120 120" fill="none" xmlns="http://www.w3.org/2000/svg">
<path fill-rule="evenodd" clip-rule="evenodd" d="M22.5 28.75C22.5 18.3947 30.8947 10 41.25 10H45C47.0711 10 48.75 11.679 48.75 13.75V106.25C48.75 108.321 47.0711 110 45 110C42.9289 110 41.25 108.321 41.25 106.25V73.75H33.75C27.5368 73.75 22.5 68.713 22.5 62.5V28.75ZM41.25 17.5C35.0368 17.5 30 22.5368 30 28.75V62.5C30 64.571 31.679 66.25 33.75 66.25H41.25V17.5Z" fill="#301D19"/>
<path d="M67.5 13.75C67.5 11.679 65.821 10 63.75 10C61.679 10 60 11.679 60 13.75V38.75C60 47.8211 66.4415 55.3875 75 57.125V106.25C75 108.321 76.679 110 78.75 110C80.821 110 82.5 108.321 82.5 106.25V57.125C91.0585 55.3875 97.5 47.8211 97.5 38.75V13.75C97.5 11.679 95.821 10 93.75 10C91.679 10 90 11.679 90 13.75V38.75C90 44.9632 84.963 50 78.75 50C72.537 50 67.5 44.9632 67.5 38.75V13.75Z" fill="#301D19"/>
<path d="M78.75 10C80.821 10 82.5 11.679 82.5 13.75V38.75C82.5 40.8211 80.821 42.5 78.75 42.5C76.679 42.5 75 40.8211 75 38.75V13.75C75 11.679 76.679 10 78.75 10Z" fill="#301D19"/>
</svg>
