<svg width="60" height="60" viewBox="0 0 60 60" fill="none" xmlns="http://www.w3.org/2000/svg">
<path fill-rule="evenodd" clip-rule="evenodd" d="M5.79102 8.125C4.75547 8.125 3.91602 8.96448 3.91602 10C3.91602 11.0355 4.75547 11.875 5.79102 11.875H8.74239C9.67704 11.875 10.469 12.5633 10.5991 13.4889L13.7343 35.7833C14.1247 38.56 16.5005 40.625 19.3045 40.625H45.166C46.2015 40.625 47.041 39.7855 47.041 38.75C47.041 37.7145 46.2015 36.875 45.166 36.875H19.3045C18.3698 36.875 17.5779 36.1867 17.4477 35.261L17.1475 33.1262H44.2785C46.7422 33.1262 48.9195 31.5228 49.6502 29.17L54.456 13.7008C54.6327 13.1317 54.5285 12.5125 54.1752 12.0326C53.8217 11.5528 53.2612 11.2695 52.6655 11.2695H13.7919C12.8682 9.3893 10.9364 8.125 8.74239 8.125H5.79102ZM14.6013 15.0195L16.6202 29.3762H44.2785C45.0997 29.3762 45.8255 28.8417 46.0692 28.0575L50.1195 15.0195H14.6013Z" fill="#D0A53E"/>
<path d="M19.4604 44.375C17.0442 44.375 15.0854 46.3338 15.0854 48.75C15.0854 51.1663 17.0442 53.125 19.4604 53.125C21.8767 53.125 23.8357 51.1663 23.8357 48.75C23.8357 46.3338 21.8767 44.375 19.4604 44.375Z" fill="#D0A53E"/>
<path d="M36.4258 48.75C36.4258 46.3338 38.3845 44.375 40.8008 44.375C43.217 44.375 45.176 46.3338 45.176 48.75C45.176 51.1663 43.2173 53.125 40.801 53.125C38.3848 53.125 36.4258 51.1663 36.4258 48.75Z" fill="#D0A53E"/>
</svg>
