<svg width="60" height="60" viewBox="0 0 60 60" fill="none" xmlns="http://www.w3.org/2000/svg">
<path fill-rule="evenodd" clip-rule="evenodd" d="M31.125 12.2585C30.4583 11.7585 29.5418 11.7585 28.875 12.2585L12.625 24.446C12.1529 24.8001 11.875 25.3557 11.875 25.946V46.2495C11.875 47.2852 12.7145 48.1245 13.75 48.1245H22.5V42.4995C22.5 38.3575 25.8578 34.9995 30 34.9995C34.1423 34.9995 37.5 38.3575 37.5 42.4995V48.1245H46.25C47.2855 48.1245 48.125 47.2852 48.125 46.2495V25.946C48.125 25.3557 47.8473 24.8001 47.375 24.446L31.125 12.2585ZM26.625 9.25854C28.625 7.75854 31.375 7.75854 33.375 9.25854L49.625 21.446C51.0415 22.5083 51.875 24.1755 51.875 25.946V46.2495C51.875 49.3562 49.3565 51.8745 46.25 51.8745H35.625C34.5895 51.8745 33.75 51.0352 33.75 49.9995V42.4995C33.75 40.4285 32.071 38.7495 30 38.7495C27.929 38.7495 26.25 40.4285 26.25 42.4995V49.9995C26.25 51.0352 25.4105 51.8745 24.375 51.8745H13.75C10.6434 51.8745 8.125 49.3562 8.125 46.2495V25.946C8.125 24.1755 8.9586 22.5083 10.375 21.446L26.625 9.25854Z" fill="#E7D7B1"/>
</svg>
