<svg width="60" height="60" viewBox="0 0 60 60" fill="none" xmlns="http://www.w3.org/2000/svg">
<path fill-rule="evenodd" clip-rule="evenodd" d="M28.125 18.8292V15H25C23.9645 15 23.125 14.1605 23.125 13.125C23.125 12.0895 23.9645 11.25 25 11.25H35C36.0355 11.25 36.875 12.0895 36.875 13.125C36.875 14.1605 36.0355 15 35 15H31.875V18.8292C43.0785 19.7803 51.875 29.1755 51.875 40.625V45H53.125C54.1605 45 55 45.8395 55 46.875C55 47.9105 54.1605 48.75 53.125 48.75H6.875C5.83948 48.75 5 47.9105 5 46.875C5 45.8395 5.83948 45 6.875 45H8.125V40.625C8.125 29.1755 16.9215 19.7803 28.125 18.8292ZM11.875 45H48.125V40.625C48.125 30.6147 40.0103 22.5 30 22.5C19.9899 22.5 11.875 30.6147 11.875 40.625V45Z" fill="#E7D7B1"/>
</svg>
