<svg width="50" height="50" viewBox="0 0 50 50" fill="none" xmlns="http://www.w3.org/2000/svg">
<path d="M23.4379 12.4998C23.4379 11.6368 24.1375 10.9373 25.0004 10.9373C25.8635 10.9373 26.5629 11.6368 26.5629 12.4998V23.4377H37.5015C38.3644 23.4377 39.064 24.1373 39.064 25.0002C39.064 25.8633 38.3644 26.5627 37.5015 26.5627H26.5629V37.5012C26.5629 38.3641 25.8635 39.0637 25.0004 39.0637C24.1375 39.0637 23.4379 38.3641 23.4379 37.5012V26.5627H12.5C11.6371 26.5627 10.9375 25.8633 10.9375 25.0002C10.9375 24.1373 11.6371 23.4377 12.5 23.4377H23.4379V12.4998Z" fill="#F4AED7"/>
</svg>
