<svg width="120" height="120" viewBox="0 0 120 120" fill="none" xmlns="http://www.w3.org/2000/svg">
<path fill-rule="evenodd" clip-rule="evenodd" d="M58.7998 12C32.2901 12 10.7998 33.4903 10.7998 60C10.7998 86.5094 32.2901 108 58.7998 108C85.3092 108 106.8 86.5094 106.8 60C106.8 33.4903 85.3092 12 58.7998 12ZM17.9998 60C17.9998 37.4668 36.2666 19.2 58.7998 19.2C81.3329 19.2 99.5998 37.4668 99.5998 60C99.5998 82.5331 81.3329 100.8 58.7998 100.8C36.2666 100.8 17.9998 82.5331 17.9998 60Z" fill="#301D19"/>
<path d="M47.131 57.9C47.0437 58.5876 46.9987 59.2886 46.9987 60C46.9987 60.7113 47.0437 61.4124 47.131 62.1H58.68C60.1711 62.1 61.38 63.3089 61.38 64.8C61.38 66.2911 60.1711 67.5 58.68 67.5H48.7978C51.5289 72.8424 57.0866 76.5 63.4987 76.5C65.5984 76.5 67.6005 76.109 69.4406 75.3984C70.8316 74.8613 72.3948 75.5534 72.9319 76.9445C73.4692 78.3355 72.7771 79.8986 71.386 80.436C68.9352 81.3823 66.2743 81.9 63.4987 81.9C54.0381 81.9 45.9788 75.9012 42.9166 67.5H38.3826C36.8914 67.5 35.6826 66.2911 35.6826 64.8C35.6826 63.3089 36.8914 62.1 38.3826 62.1H41.698C41.6323 61.4088 41.5987 60.7082 41.5987 60C41.5987 59.2917 41.6323 58.5912 41.698 57.9H38.385C36.8938 57.9 35.685 56.6911 35.685 55.2C35.685 53.7088 36.8938 52.5 38.385 52.5H42.9166C45.9788 44.0987 54.0381 38.1 63.4987 38.1C66.2743 38.1 68.9352 38.6176 71.386 39.564C72.7771 40.1012 73.4692 41.6644 72.9319 43.0554C72.3948 44.4465 70.8316 45.1387 69.4406 44.6015C67.6005 43.8909 65.5984 43.5 63.4987 43.5C57.0866 43.5 51.5289 47.1575 48.7978 52.5H58.68C60.1711 52.5 61.38 53.7088 61.38 55.2C61.38 56.6911 60.1711 57.9 58.68 57.9H47.131Z" fill="#301D19"/>
</svg>
