<svg width="870" height="232" viewBox="0 0 870 232" fill="none" xmlns="http://www.w3.org/2000/svg">
<path d="M0 116C0 60.7715 44.7715 16 100 16C155.228 16 200 60.7715 200 116C200 171.228 155.228 216 100 216C44.7715 216 0 171.228 0 116Z" fill="#592E74"/>
<path d="M119.568 158.824C119.568 160.275 115.216 161 106.512 161C97.8933 161 93.584 160.275 93.584 158.824V95.72L79.76 95.848C77.2 95.848 75.92 91.752 75.92 83.56C75.92 80.744 76.176 78.0133 76.688 75.368C77.2853 72.7227 78.2667 71.4 79.632 71.4H114.704C116.155 71.4 117.307 71.7413 118.16 72.424C119.099 73.0213 119.568 73.7893 119.568 74.728V158.824Z" fill="#F4AED7"/>
<rect x="327" y="16" width="200" height="200" rx="100" fill="#592E74"/>
<path d="M448.799 161H406.303C403.316 161 401.226 158.099 400.031 152.296C399.434 149.139 399.135 146.749 399.135 145.128C399.135 143.507 399.391 142.44 399.903 141.928C419.018 122.216 428.575 108.819 428.575 101.736C428.575 99.3467 427.935 97.5547 426.655 96.36C425.46 95.1653 423.498 94.568 420.767 94.568C418.122 94.568 415.434 95.08 412.703 96.104C410.058 97.128 407.967 98.2373 406.431 99.432C403.103 95.4213 400.799 91.1973 399.519 86.76C399.092 85.3093 398.879 83.9867 398.879 82.792C398.879 81.512 399.092 80.3173 399.519 79.208C400.202 76.9893 403.359 74.8987 408.991 72.936C414.708 70.9733 420.724 69.992 427.039 69.992C446.154 69.992 455.711 78.4827 455.711 95.464C455.711 102.973 453.151 110.611 448.031 118.376C442.911 126.056 436.938 132.712 430.111 138.344L455.967 137.32C456.394 141.843 456.607 145.768 456.607 149.096C456.607 152.424 455.924 155.24 454.559 157.544C453.194 159.848 451.274 161 448.799 161Z" fill="#F4AED7"/>
<rect x="646" y="8" width="216" height="216" rx="108" fill="#592E74"/>
<rect x="646" y="8" width="216" height="216" rx="108" stroke="#D0A53E" stroke-width="16"/>
<path d="M722.748 152.552C722.748 150.163 723.345 147.475 724.54 144.488C725.734 141.416 726.886 138.984 727.996 137.192C729.105 135.315 729.745 134.376 729.916 134.376C734.865 137.363 740.07 138.856 745.532 138.856C748.945 138.856 751.676 138.173 753.724 136.808C755.857 135.443 756.924 133.565 756.924 131.176C756.924 128.701 755.942 127.123 753.979 126.44C752.102 125.757 749.073 125.288 744.892 125.032H740.284C739.26 125.032 738.278 123.795 737.34 121.32C736.486 118.76 736.06 116.285 736.06 113.896C736.06 109.885 737.254 107.837 739.644 107.752L743.356 107.624C745.66 107.624 748.049 106.984 750.524 105.704C753.084 104.339 754.364 102.632 754.364 100.584C754.364 97 751.164 95.208 744.764 95.208C739.985 95.208 735.377 96.1467 730.94 98.024C727.1 91.112 725.18 85.736 725.18 81.896C725.18 77.9707 727.868 75.0267 733.244 73.064C738.705 71.1013 745.532 70.12 753.724 70.12C761.916 70.12 768.316 71.8267 772.924 75.24C777.532 78.6533 779.836 83.304 779.836 89.192C779.836 99.5173 775.398 107.453 766.524 113C777.276 117.352 782.652 124.733 782.652 135.144C782.652 143.251 779.793 149.821 774.076 154.856C768.358 159.805 760.166 162.28 749.5 162.28C742.758 162.28 736.614 161.341 731.068 159.464C725.521 157.501 722.748 155.197 722.748 152.552Z" fill="#F4AED7"/>
<rect x="515" y="105" width="150" height="23" fill="#592E74"/>
<rect x="181" y="105" width="150" height="23" fill="#592E74"/>
</svg>
