<svg width="870" height="232" viewBox="0 0 870 232" fill="none" xmlns="http://www.w3.org/2000/svg">
<mask id="path-1-outside-1_4_54" maskUnits="userSpaceOnUse" x="0" y="0" width="232" height="232" fill="black">
<rect fill="white" width="232" height="232"/>
<path d="M16 116C16 60.7715 60.7715 16 116 16C171.228 16 216 60.7715 216 116C216 171.228 171.228 216 116 216C60.7715 216 16 171.228 16 116Z"/>
</mask>
<path d="M16 116C16 60.7715 60.7715 16 116 16C171.228 16 216 60.7715 216 116C216 171.228 171.228 216 116 216C60.7715 216 16 171.228 16 116Z" fill="#592E74"/>
<path d="M116 216V200C69.6081 200 32 162.392 32 116H16H0C0 180.065 51.935 232 116 232V216ZM216 116H200C200 162.392 162.392 200 116 200V216V232C180.065 232 232 180.065 232 116H216ZM116 16V32C162.392 32 200 69.6081 200 116H216H232C232 51.935 180.065 0 116 0V16ZM116 16V0C51.935 0 0 51.935 0 116H16H32C32 69.6081 69.6081 32 116 32V16Z" fill="#D0A53E" mask="url(#path-1-outside-1_4_54)"/>
<path d="M135.568 158.824C135.568 160.275 131.216 161 122.512 161C113.893 161 109.584 160.275 109.584 158.824V95.72L95.76 95.848C93.2 95.848 91.92 91.752 91.92 83.56C91.92 80.744 92.176 78.0133 92.688 75.368C93.2853 72.7227 94.2667 71.4 95.632 71.4H130.704C132.155 71.4 133.307 71.7413 134.16 72.424C135.099 73.0213 135.568 73.7893 135.568 74.728V158.824Z" fill="#F4AED7"/>
<rect x="206" y="105" width="150" height="23" fill="#592E74"/>
<path d="M343 116C343 60.7715 387.772 16 443 16C498.228 16 543 60.7715 543 116C543 171.228 498.228 216 443 216C387.772 216 343 171.228 343 116Z" fill="#592E74"/>
<path d="M464.799 161H422.303C419.316 161 417.226 158.099 416.031 152.296C415.434 149.139 415.135 146.749 415.135 145.128C415.135 143.507 415.391 142.44 415.903 141.928C435.018 122.216 444.575 108.819 444.575 101.736C444.575 99.3467 443.935 97.5547 442.655 96.36C441.46 95.1653 439.498 94.568 436.767 94.568C434.122 94.568 431.434 95.08 428.703 96.104C426.058 97.128 423.967 98.2373 422.431 99.432C419.103 95.4213 416.799 91.1973 415.519 86.76C415.092 85.3093 414.879 83.9867 414.879 82.792C414.879 81.512 415.092 80.3173 415.519 79.208C416.202 76.9893 419.359 74.8987 424.991 72.936C430.708 70.9733 436.724 69.992 443.039 69.992C462.154 69.992 471.711 78.4827 471.711 95.464C471.711 102.973 469.151 110.611 464.031 118.376C458.911 126.056 452.938 132.712 446.111 138.344L471.967 137.32C472.394 141.843 472.607 145.768 472.607 149.096C472.607 152.424 471.924 155.24 470.559 157.544C469.194 159.848 467.274 161 464.799 161Z" fill="#F4AED7"/>
<rect x="530" y="105" width="150" height="23" fill="#592E74"/>
<rect x="670" y="16" width="200" height="200" rx="100" fill="#592E74"/>
<path d="M738.748 152.552C738.748 150.163 739.345 147.475 740.54 144.488C741.734 141.416 742.886 138.984 743.996 137.192C745.105 135.315 745.745 134.376 745.916 134.376C750.865 137.363 756.07 138.856 761.532 138.856C764.945 138.856 767.676 138.173 769.724 136.808C771.857 135.443 772.924 133.565 772.924 131.176C772.924 128.701 771.942 127.123 769.979 126.44C768.102 125.757 765.073 125.288 760.892 125.032H756.284C755.26 125.032 754.278 123.795 753.34 121.32C752.486 118.76 752.06 116.285 752.06 113.896C752.06 109.885 753.254 107.837 755.644 107.752L759.356 107.624C761.66 107.624 764.049 106.984 766.524 105.704C769.084 104.339 770.364 102.632 770.364 100.584C770.364 97 767.164 95.208 760.764 95.208C755.985 95.208 751.377 96.1467 746.94 98.024C743.1 91.112 741.18 85.736 741.18 81.896C741.18 77.9707 743.868 75.0267 749.244 73.064C754.705 71.1013 761.532 70.12 769.724 70.12C777.916 70.12 784.316 71.8267 788.924 75.24C793.532 78.6533 795.836 83.304 795.836 89.192C795.836 99.5173 791.398 107.453 782.524 113C793.276 117.352 798.652 124.733 798.652 135.144C798.652 143.251 795.793 149.821 790.076 154.856C784.358 159.805 776.166 162.28 765.5 162.28C758.758 162.28 752.614 161.341 747.068 159.464C741.521 157.501 738.748 155.197 738.748 152.552Z" fill="#F4AED7"/>
</svg>
